<svg width="49" height="66" viewBox="0 0 49 66" fill="none" xmlns="http://www.w3.org/2000/svg">
<path d="M48.5 24.6C48.4 21.1 47.3 17.6 45.1 14.7C45.1 14.7 45.1 14.6 45.0 14.6C43.6 12.7 41.9 11.0 39.9 9.7C39.9 9.6 39.8 9.6 39.7 9.6C36.7 7.5 33.3 6.2 29.6 5.5H29.6C29.6 5.5 29.6 5.5 29.5 5.5C28.6 5.3 27.7 5.2 26.7 5.1C26.6 3.2 26.2 1.9 25.7 1.2C25.6 0.9 25.4 0.6 25.1 0.4C24.9 0.2 24.6 0.1 24.3 0.0H24.2H24.1C23.8 0.1 23.5 0.2 23.3 0.4C23.0 0.6 22.8 0.9 22.7 1.2C22.2 1.9 21.8 3.2 21.7 5.2C12.3 5.9 4.5 11.1 1.4 18.0C1.4 18.0 1.4 18.0 1.4 18.1C0.5 20.2 0.0 22.4 0.0 24.7C0.0 30.0 2.6 35.0 7.3 38.7C7.0 40.8 7.2 43.0 7.9 44.9C6.8 48.5 5.8 53.1 7.7 57.0C7.7 57.1 7.7 57.1 7.7 57.1C9.9 61.5 14.1 62.7 18.2 63.9C20.2 64.4 22.1 65.0 23.9 65.9L24.0 65.9H24.0C24.1 65.9 24.1 65.9 24.1 65.9H24.2C24.3 65.9 24.4 65.9 24.5 65.9C26.3 65.0 28.2 64.3 30.1 63.8C32.5 63.2 34.9 62.5 36.9 61.2L37.0 61.2C38.6 60.2 39.9 58.7 40.7 57.0C42.6 53.1 41.6 48.6 40.5 45.1C40.5 45.0 40.5 45.0 40.5 45.0C41.6 42.4 41.3 39.6 41.1 38.7C45.9 35.0 48.5 30.0 48.5 24.6ZM47.4 24.6C47.4 26.1 47.2 27.5 46.8 28.9C46.1 27.5 45.2 26.1 44.1 24.9C42.0 22.6 38.4 19.9 32.5 18.8C36.4 17.3 40.4 16.2 44.4 15.5C46.4 18.2 47.4 21.3 47.4 24.6ZM43.8 14.6C38.5 15.5 33.3 17.2 28.5 19.4C28.1 16.9 27.0 14.8 25.5 14.1C25.6 13.9 25.6 13.8 25.6 13.6C30.1 12.1 34.7 11.1 39.4 10.6C41.1 11.7 42.5 13.0 43.8 14.6ZM37.9 47.1L37.6 47.3C36.6 48.1 35.5 48.6 34.3 48.8H34.2H34.1H34.1C31.6 49.2 28.3 48.9 24.4 47.7H24.3H24.1H24.1C22.3 48.3 20.4 48.7 18.5 48.9H18.5C14.9 49.2 12.3 48.6 10.6 47.0C8.5 45.2 8.2 42.5 8.2 40.6C9.0 42.2 10.3 43.6 11.9 44.5C14.4 46.0 17.7 46.3 21.6 45.4C21.8 45.8 22.2 46.2 22.7 46.5C23.1 46.8 23.6 46.9 24.2 46.9C24.7 46.9 25.3 46.8 25.7 46.5C26.2 46.2 26.6 45.8 26.8 45.4C30.7 46.3 33.9 46.0 36.5 44.5C38.1 43.6 39.4 42.2 40.2 40.6C40.3 42.5 39.9 45.2 37.9 47.1ZM35.6 60.8C33.9 61.7 32.0 62.4 30.2 62.8C29.3 62.0 28.5 61.1 27.9 60.0C27.0 58.4 27.5 56.7 28.2 55.0C28.3 54.7 28.4 54.4 28.6 54.1C29.1 52.8 29.8 51.3 29.5 49.9C30.3 50.0 31.0 50.0 31.8 50.1C32.5 50.1 33.3 50.0 34.0 49.9C34.3 50.7 33.9 52.1 33.5 53.3C33.2 54.2 33.0 55.0 33.0 56.0C33.0 56.9 33.2 57.9 33.7 58.7C34.1 59.6 34.8 60.3 35.6 60.8ZM24.2 64.9C23.5 64.3 21.0 62.3 20.5 58.9C20.0 55.8 21.4 52.4 24.4 48.9C25.7 49.2 27.1 49.5 28.5 49.8C28.8 50.9 28.2 52.3 27.6 53.6C27.5 54.0 27.3 54.3 27.2 54.6C26.5 56.5 25.9 58.5 27.1 60.5C27.6 61.5 28.3 62.3 29.0 63.1C27.4 63.6 25.8 64.2 24.2 64.9H24.2ZM36.0 43.6C33.6 45.1 30.4 45.3 26.7 44.3C26.6 44.3 26.6 44.3 26.5 44.3C26.4 44.3 26.4 44.3 26.3 44.3C26.2 44.4 26.2 44.4 26.1 44.5C26.1 44.5 26.1 44.6 26.0 44.7C25.9 45.0 25.7 45.4 25.3 45.6C25.0 45.8 24.6 45.9 24.2 45.9C23.8 45.9 23.4 45.8 23.1 45.6C22.8 45.3 22.5 45.0 22.4 44.6C22.4 44.6 22.3 44.5 22.3 44.5C22.3 44.4 22.2 44.4 22.1 44.3C22.1 44.3 22.0 44.3 21.9 44.3C21.9 44.3 21.8 44.3 21.7 44.3C18.0 45.3 14.8 45.1 12.4 43.6C10.5 42.5 9.1 40.7 8.4 38.5C8.8 37.7 10.8 33.9 15.3 29.6C15.8 29.3 21.9 26.0 33.1 29.6C37.6 34.0 39.6 37.8 40.0 38.5C39.3 40.7 37.9 42.5 36.0 43.6L36.0 43.6ZM20.9 20.8C20.9 18.3 21.8 16.0 23.1 15.2C23.3 15.1 23.4 15.0 23.6 14.9C23.7 14.9 23.9 14.8 24.1 14.8H24.3C24.4 14.8 24.6 14.9 24.8 14.9C24.9 15.0 25.1 15.0 25.2 15.1C26.4 15.8 27.2 17.7 27.4 19.9C27.5 20.2 27.5 20.5 27.5 20.8C27.5 20.9 27.5 21.0 27.5 21.0C27.5 21.9 27.4 22.7 27.1 23.5C27.0 23.8 26.9 24.2 26.8 24.5C26.2 25.9 25.2 26.9 24.2 26.9C23.1 26.9 22.2 25.9 21.6 24.5C21.4 24.1 21.3 23.8 21.2 23.4C21.0 22.6 20.9 21.7 20.9 20.8ZM22.0 26.9C20.4 27.0 18.9 27.2 17.5 27.6C18.4 26.8 19.5 25.9 20.7 25.1C21.0 25.8 21.4 26.4 22.0 26.9ZM26.3 27.0C26.9 26.5 27.4 25.8 27.7 25.1C29.0 26.1 30.3 27.1 31.4 28.0C29.7 27.6 28.0 27.2 26.3 27.0ZM25.9 12.4C26.3 10.6 26.5 8.8 26.7 7.0C27.6 6.8 28.5 6.6 29.4 6.5C32.5 7.0 35.4 8.1 38.1 9.7C33.9 10.2 29.8 11.1 25.9 12.4ZM23.4 1.8C23.6 1.4 23.9 1.2 24.2 1.0C24.5 1.2 24.8 1.4 24.9 1.8C25.3 2.3 25.6 3.3 25.7 5.0C25.7 5.4 25.7 5.7 25.7 6.1V6.2C25.7 6.5 25.6 6.8 25.6 7.2C25.5 9.1 25.2 11.0 24.7 12.8C24.6 13.1 24.6 13.5 24.5 13.8C24.4 13.8 24.3 13.8 24.2 13.8C24.1 13.8 23.9 13.8 23.8 13.8C23.8 13.6 23.7 13.4 23.7 13.2C23.2 11.4 22.9 9.7 22.8 7.9C22.7 7.5 22.7 7.2 22.7 6.8C22.7 6.5 22.7 6.3 22.6 6.1C22.6 5.7 22.6 5.4 22.6 5.0C22.8 3.3 23.1 2.3 23.4 1.8ZM21.7 6.1C21.7 6.4 21.7 6.8 21.7 7.1C12.5 9.6 6.8 13.3 3.8 15.7C7.4 10.5 14.0 6.8 21.7 6.1ZM2.3 18.5C2.6 18.1 4.6 16.0 8.6 13.7C12.7 11.2 17.2 9.4 21.8 8.1C22.0 10.0 22.3 11.8 22.7 13.6C17.7 15.5 13.1 18.3 9.1 21.8C5.1 25.5 3.0 28.9 2.2 30.6C1.4 28.6 1.0 26.6 1.0 24.5C1.0 22.4 1.4 20.4 2.3 18.5L2.3 18.5ZM2.7 31.7C3.4 30.3 7.9 21.1 21.7 15.1C20.6 16.4 19.9 18.4 19.9 20.8C19.9 21.9 20.0 23.0 20.3 24.1C12.3 29.7 8.7 35.8 7.7 37.7C5.6 36.1 3.9 34.1 2.7 31.7H2.7ZM8.6 46.2C8.9 46.8 9.4 47.3 9.9 47.8C10.7 48.6 11.7 49.1 12.8 49.5C11.7 49.8 10.8 50.4 9.9 51.1C8.9 52.1 8.2 53.3 7.9 54.7C7.3 51.9 7.8 48.9 8.6 46.2H8.6ZM8.7 56.7C9.0 49.9 15.3 50.0 15.6 50.0C15.7 50.0 15.7 50.0 15.8 50.0C16.1 50.0 16.4 50.0 16.8 50.0C14.7 51.7 13.4 53.6 13.0 55.7C12.7 57.6 13.0 59.6 13.9 61.4C11.7 60.4 9.8 59.1 8.7 56.7H8.7ZM15.4 61.9C15.0 61.4 13.5 58.8 14.0 55.9C14.5 53.6 16.1 51.6 18.7 49.9C20.1 49.8 21.5 49.5 22.8 49.2C20.2 52.6 19.0 55.9 19.5 59.0C19.8 60.8 20.5 62.5 21.7 63.9C20.6 63.5 19.6 63.2 18.5 62.9C17.4 62.6 16.4 62.3 15.4 61.9ZM36.6 60.2C35.8 59.8 35.2 59.2 34.7 58.4C34.2 57.7 34.0 56.8 34.0 55.9C34.0 55.1 34.2 54.3 34.5 53.6C34.9 52.2 35.3 50.8 35.0 49.7C35.8 49.5 36.7 49.1 37.4 48.7C37.4 52.6 39.5 54.3 40.4 54.8C40.3 55.4 40.1 56.0 39.8 56.6C39.1 58.1 38.0 59.3 36.6 60.2H36.6ZM40.6 53.7C39.8 53.1 38.2 51.4 38.4 47.9L38.6 47.8C39.1 47.4 39.5 46.9 39.8 46.3C40.5 48.6 41.0 51.2 40.6 53.7H40.6ZM40.7 37.7C39.8 35.8 36.1 29.8 28.1 24.1C28.4 23.0 28.6 21.9 28.5 20.8C28.5 20.7 28.5 20.6 28.5 20.5C29.3 20.2 30.0 19.8 30.7 19.5C37.3 20.3 41.2 23.2 43.3 25.5C44.6 26.9 45.7 28.6 46.4 30.3C45.1 33.2 43.2 35.8 40.7 37.7H40.7Z" fill="#3F4E65"/>
</svg>
