<svg xmlns="http://www.w3.org/2000/svg" width="16" height="18" viewBox="0 0 16 18" fill="none">
<path d="M8 9.8C9.3 9.8 10.5 8.7 10.5 7.3C10.5 5.9 9.3 4.8 8 4.8C6.6 4.8 5.5 5.9 5.5 7.3C5.5 8.7 6.6 9.8 8 9.8Z" stroke="#3F4E65" stroke-width="1.3" stroke-linecap="round" stroke-linejoin="round"/>
<path d="M8.0 0.6C6.2 0.6 4.5 1.3 3.2 2.6C2.0 3.8 1.3 5.5 1.3 7.3C1.3 8.9 1.6 9.9 2.5 11.0L8.0 17.3L13.4 11.0C14.3 9.9 14.6 8.9 14.6 7.3C14.6 5.5 13.9 3.8 12.7 2.6C11.4 1.3 9.7 0.6 8.0 0.6V0.6Z" stroke="#3F4E65" stroke-width="1.3" stroke-linecap="round" stroke-linejoin="round"/>
</svg>