<svg xmlns="http://www.w3.org/2000/svg" width="18" height="14" viewBox="0 0 18 14" fill="none">
<path d="M3.3 0.3H14.6C15.3 0.3 15.9 0.5 16.4 1.0C16.9 1.5 17.2 2.1 17.3 2.8L17.3 3.0V10.9C17.3 11.6 17.0 12.3 16.5 12.8C16.1 13.3 15.4 13.6 14.7 13.6L14.6 13.6H3.3C2.6 13.6 2.0 13.4 1.5 12.9C1.0 12.4 0.7 11.8 0.6 11.1L0.6 10.9V3.0C0.6 2.3 0.9 1.6 1.4 1.1C1.8 0.6 2.5 0.3 3.2 0.3L3.3 0.3H14.6H3.3ZM16.0 4.8L9.2 8.3C9.2 8.4 9.1 8.4 9.0 8.4C8.9 8.4 8.8 8.4 8.7 8.4L8.7 8.3L1.9 4.8V10.9C1.9 11.3 2.0 11.6 2.3 11.9C2.5 12.2 2.8 12.3 3.2 12.4L3.3 12.4H14.6C14.9 12.4 15.3 12.2 15.6 12.0C15.8 11.7 16.0 11.4 16.0 11.0L16.0 10.9V4.8ZM14.6 1.5H3.3C3.0 1.5 2.6 1.7 2.3 1.9C2.1 2.2 1.9 2.5 1.9 2.9L1.9 3.0V3.3L8.9 7.1L16.0 3.3V3.0C16.0 2.6 15.9 2.3 15.6 2.0C15.4 1.7 15.1 1.6 14.7 1.5L14.6 1.5Z" fill="#3F4E65"/>
</svg>