<svg xmlns="http://www.w3.org/2000/svg" width="16" height="16" viewBox="0 0 16 16" fill="none">
<path d="M1.2 2.1L1.2 2.1L4.2 0.6L7.5 5.0L6.0 7.0C6.0 7.7 6.4 8.5 6.9 9.0C7.4 9.5 8.2 9.9 8.9 9.9L10.9 8.4L15.3 11.7L13.8 14.7L13.8 14.7L13.8 14.7C13.7 14.9 13.6 15.0 13.5 15.1C13.3 15.1 13.2 15.2 13.0 15.2H12.3C10.7 15.2 9.2 14.9 7.8 14.3C6.5 13.7 5.2 12.9 4.1 11.8C3.0 10.7 2.2 9.4 1.6 8.0C1.0 6.7 0.7 5.2 0.7 3.6V2.9C0.7 2.7 0.8 2.6 0.8 2.4C0.9 2.3 1.0 2.2 1.2 2.1ZM1.9 3.6C1.9 9.4 6.5 14.0 12.3 14.0H12.9L13.9 12.0L10.9 9.8L9.3 11.0H9.1C8.0 11.0 6.9 10.6 6.1 9.8C5.3 9.0 4.9 7.9 4.9 6.8V6.6L6.1 5.0L3.9 2.0L1.9 3.0V3.6Z" fill="#3F4E65"/>
</svg>