<svg xmlns="http://www.w3.org/2000/svg" width="30" height="30" viewBox="0 0 30 30" fill="none">
<rect width="30" height="30" rx="15" fill="#FFC85E"/>
<path d="M16.3 16.7L17.0 16.0C17.1 15.9 17.2 15.8 17.3 15.8C17.5 15.8 17.6 15.8 17.7 15.8L18.6 16.2C18.7 16.2 18.8 16.3 18.9 16.4C19.0 16.5 19.0 16.6 19.0 16.8V18.3C19.0 18.4 19.0 18.5 19.0 18.6C18.9 18.7 18.9 18.8 18.8 18.8C18.7 18.9 18.7 18.9 18.6 19.0C18.5 19.0 18.4 19.0 18.3 19.0C12.3 18.6 11.1 13.6 10.9 11.6C10.9 11.5 10.9 11.4 10.9 11.4C10.9 11.3 11.0 11.2 11.1 11.1C11.1 11.0 11.2 11.0 11.3 10.9C11.4 10.9 11.5 10.9 11.6 10.9H13.1C13.2 10.9 13.3 10.9 13.5 11.0C13.6 11.1 13.7 11.2 13.7 11.3L14.0 12.2C14.1 12.3 14.1 12.4 14.1 12.6C14.1 12.7 14.0 12.8 13.9 12.9L13.2 13.6C13.2 13.6 13.6 16.3 16.3 16.7Z" fill="white"/>
</svg>